<?xml version="1.0" encoding="utf-8"?>
<!-- Generator: Adobe Illustrator 22.0.1, SVG Export Plug-In . SVG Version: 6.00 Build 0)  -->
<svg width="36px" height="36px" viewBox="0 0 36 36" version="1.1" xmlns="http://www.w3.org/2000/svg" xmlns:xlink="http://www.w3.org/1999/xlink">
<style type="text/css">
	.st0{fill:none;stroke:#007EA8;stroke-width:2;stroke-linecap:round;stroke-linejoin:round;}
	.st1{fill:none;stroke:#007EA8;stroke-width:2;}
	.st2{fill:#FFFFFF;}
	.st3{fill:#FFFFFF;stroke:#007EA8;stroke-width:2;}
</style>
<title>icon/activity/object-code</title>
<desc>Created with Sketch.</desc>
<g id="icon_x2F_activity_x2F_object-code">
	<polyline id="Shape" class="st0" points="15.3,12 9,18.3 15.3,24.7 	"/>
	<polyline id="Shape_1_" class="st0" points="21.7,24.7 28,18.3 21.7,12 	"/>
	<path id="Shape_2_" class="st1" d="M33.5,35H2.5C1.7,35,1,34.3,1,33.5V2.5C1,1.7,1.7,1,2.5,1h30.9C34.3,1,35,1.7,35,2.5v30.9
		C35,34.3,34.3,35,33.5,35z"/>
</g>
<g id="icon_x2F_activity_x2F_action-run">
	<circle id="Oval-Copy" class="st2" cx="32.4" cy="31.7" r="11"/>
	<circle id="Oval" class="st3" cx="32.4" cy="31.7" r="9"/>
	<path id="Shape_3_" class="st0" d="M31.1,27.8l5,3.3c0.5,0.3,0.5,1,0,1.2l-5,3.3c-0.5,0.3-1.2,0-1.2-0.6v-6.5
		C29.9,27.8,30.6,27.5,31.1,27.8z"/>
</g>
</svg>
