<?xml version="1.0" encoding="UTF-8"?>
<svg width="36px" height="36px" viewBox="0 0 36 36" version="1.1" xmlns="http://www.w3.org/2000/svg" xmlns:xlink="http://www.w3.org/1999/xlink">
    <!-- Generator: Sketch 48.2 (47327) - http://www.bohemiancoding.com/sketch -->
    <title>icon/activity/object-data-output</title>
    <desc>Created with Sketch.</desc>
    <defs></defs>
    <g id="Icons" stroke="none" stroke-width="1" fill="none" fill-rule="evenodd">
        <g id="icon/activity/object-data-output">
            <path d="M33.4545455,35 L2.54545455,35 C1.69545455,35 1,34.3045455 1,33.4545455 L1,2.54545455 C1,1.69545455 1.69545455,1 2.54545455,1 L33.4545455,1 C34.3045455,1 35,1.69545455 35,2.54545455 L35,33.4545455 C35,34.3045455 34.3045455,35 33.4545455,35 Z" id="Shape" stroke="#9b9c9e" stroke-width="2"></path>
            <g id="image-video_files" transform="translate(6.000000, 8.000000)" stroke="#9b9c9e" stroke-linecap="round" stroke-linejoin="round" stroke-width="2">
                <path d="M10.9266872,0.53665638 L0.94662522,5.52668724 C0.06216684,5.9689167 0.06216684,7.2310833 0.94662522,7.67331276 L10.9266869,12.6633442 C11.602353,13.0011772 12.3976464,13.0011772 13.0733125,12.6633442 L23.0533742,7.67331276 C23.9378331,7.2310833 23.9378331,5.9689167 23.0533742,5.52668724 L13.0733128,0.53665638 C12.3976467,0.19882338 11.6023533,0.19882338 10.9266872,0.53665638 Z" id="Shape"></path>
                <path d="M0,11.4 L10.9266872,16.8633442 C11.6023533,17.2011772 12.3976467,17.2011772 13.0733128,16.8633442 L24,11.4" id="Shape"></path>
                <path d="M0,15.6 L10.9266872,21.063343 C11.6023533,21.4011772 12.3976467,21.4011772 13.0733128,21.063343 L24,15.6" id="Shape"></path>
            </g>
            <rect id="Rectangle" fill="#f3f5f7" x="12" y="4" width="12" height="12"></rect>
            <path d="M18,16 L18,7" id="Shape-Copy-2" stroke="#9b9c9e" stroke-width="2" stroke-linecap="round" stroke-linejoin="round"></path>
            <polyline id="Shape-Copy" stroke="#9b9c9e" stroke-width="2" stroke-linecap="round" stroke-linejoin="round" points="14 10 18 6 22 10"></polyline>
        </g>
    </g>
</svg>