<?xml version="1.0" encoding="UTF-8"?>
<svg width="38px" height="38px" viewBox="0 0 38 38" version="1.1" xmlns="http://www.w3.org/2000/svg" xmlns:xlink="http://www.w3.org/1999/xlink">
    <!-- Generator: Sketch 48.2 (47327) - http://www.bohemiancoding.com/sketch -->
    <title>icon/main/data</title>
    <desc>Created with Sketch.</desc>
    <defs></defs>
    <g id="Icons" stroke="none" stroke-width="1" fill="none" fill-rule="evenodd" stroke-linecap="round" stroke-linejoin="round">
        <g id="icon/main/data" stroke="#E3E4E5" stroke-width="2">
            <g id="image-video_files" transform="translate(2.000000, 2.000000)">
                <path d="M15.1464958,0.551996534 L1.5108137,7.36983736 C0.302385015,7.97405208 0.302385015,9.69854061 1.5108137,10.3027553 L15.1464954,17.120597 C16.0696527,17.5821756 17.156256,17.5821756 18.0794133,17.120597 L31.715095,10.3027553 C32.9235244,9.69854061 32.9235244,7.97405208 31.715095,7.36983736 L18.0794137,0.551996534 C17.1562564,0.0904179016 16.0696531,0.0904179016 15.1464958,0.551996534 Z" id="Shape"></path>
                <path d="M0.604492188,15.2350281 L15.533541,22.6995533 C16.4566984,23.1611319 17.5433016,23.1611319 18.466459,22.6995533 L33.3955078,15.2350281" id="Shape"></path>
                <path d="M0.604492188,20.7001973 L15.533541,28.1647209 C16.4566984,28.6263011 17.5433016,28.6263011 18.466459,28.1647209 L33.3955078,20.7001973" id="Shape"></path>
                <path d="M0.604492188,25.7001973 L15.533541,33.1647209 C16.4566984,33.6263011 17.5433016,33.6263011 18.466459,33.1647209 L33.3955078,25.7001973" id="Shape-Copy"></path>
            </g>
        </g>
    </g>
</svg>