<svg xmlns="http://www.w3.org/2000/svg" xmlns:xlink="http://www.w3.org/1999/xlink" version="1.1" x="0px" y="0px" viewBox="0 0 100 125" style="enable-background:new 0 0 100 100;" xml:space="preserve"><g fill="#97c0d5"><path d="M67,27.9H33c-0.6,0-1,0.4-1,1V34h-3c-0.6,0-1,0.4-1,1s0.4,1,1,1h3v4h-3c-0.6,0-1,0.4-1,1s0.4,1,1,1h3v4h-3c-0.6,0-1,0.4-1,1  s0.4,1,1,1h3v4h-3c-0.6,0-1,0.4-1,1s0.4,1,1,1h3v4h-3c-0.6,0-1,0.4-1,1s0.4,1,1,1h3v4h-3c-0.6,0-1,0.4-1,1s0.4,1,1,1h3v5.1  c0,0.6,0.4,1,1,1h34c0.6,0,1-0.4,1-1V28.9C68,28.4,67.6,27.9,67,27.9z M66,70.1H34V66h1c0.6,0,1-0.4,1-1s-0.4-1-1-1h-1v-4h1  c0.6,0,1-0.4,1-1s-0.4-1-1-1h-1v-4h1c0.6,0,1-0.4,1-1s-0.4-1-1-1h-1v-4h1c0.6,0,1-0.4,1-1s-0.4-1-1-1h-1v-4h1c0.6,0,1-0.4,1-1  s-0.4-1-1-1h-1v-4h1c0.6,0,1-0.4,1-1s-0.4-1-1-1h-1v-4.1h32V70.1z M40,53c0-0.6,0.4-1,1-1h18c0.6,0,1,0.4,1,1s-0.4,1-1,1H41  C40.4,54,40,53.6,40,53z M40,59c0-0.6,0.4-1,1-1h18c0.6,0,1,0.4,1,1s-0.4,1-1,1H41C40.4,60,40,59.6,40,59z M40,47c0-0.6,0.4-1,1-1  h18c0.6,0,1,0.4,1,1s-0.4,1-1,1H41C40.4,48,40,47.6,40,47z M40,41c0-0.6,0.4-1,1-1h18c0.6,0,1,0.4,1,1s-0.4,1-1,1H41  C40.4,42,40,41.6,40,41z"/></g></svg>
