<?xml version="1.0" encoding="iso-8859-1"?>
<!-- Generator: Adobe Illustrator 19.0.0, SVG Export Plug-In . SVG Version: 6.00 Build 0)  -->
<svg xmlns="http://www.w3.org/2000/svg" xmlns:xlink="http://www.w3.org/1999/xlink" version="1.1" id="Layer_1" x="0px" y="0px" viewBox="0 0 512 512" style="enable-background:new 0 0 512 512;" xml:space="preserve" width="512px" height="512px">
<g>
	<g>
		<path d="M458.001,0H92.667c-5.523,0-10,4.477-10,10v19.649l-10.223-0.837c-7.305-0.6-14.58,1.905-19.968,6.869    c-5.387,4.964-8.476,12.013-8.476,19.339c0,13.587,10.607,25.099,24.148,26.208l14.519,1.189v13.308l-10.223-0.837    c-7.305-0.603-14.58,1.905-19.968,6.869c-5.387,4.965-8.476,12.013-8.476,19.339c0,13.587,10.607,25.099,24.148,26.208    l14.519,1.191v13.308l-10.223-0.837c-7.305-0.601-14.58,1.905-19.968,6.869c-5.387,4.964-8.476,12.012-8.476,19.339    c0,13.585,10.607,25.097,24.148,26.208l14.519,1.189v13.308l-10.223-0.837c-7.299-0.603-14.579,1.905-19.967,6.869    s-8.477,12.013-8.477,19.339c0,13.587,10.607,25.099,24.148,26.208l14.519,1.191v13.308l-10.223-0.837    c-7.299-0.601-14.579,1.905-19.967,6.869c-5.388,4.964-8.477,12.012-8.477,19.339c0,13.587,10.607,25.099,24.148,26.208    l14.519,1.189v13.308l-10.223-0.837c-7.299-0.6-14.579,1.905-19.967,6.869s-8.477,12.012-8.477,19.339    c0,13.587,10.607,25.099,24.148,26.208l14.519,1.191v13.308l-10.223-0.837c-7.305-0.601-14.58,1.905-19.968,6.869    s-8.477,12.013-8.477,19.339c0,13.587,10.607,25.099,24.148,26.208l14.52,1.189V502c0,5.523,4.477,10,10,10h365.333    c5.524,0,10-4.477,10-10V10C468.001,4.477,463.525,0,458.001,0z M69.783,61.295c-3.243-0.265-5.783-3.021-5.783-6.275    c0-2.401,1.272-3.932,2.029-4.629c0.699-0.645,2.14-1.667,4.24-1.667c0.176,0,0.356,0.007,0.541,0.023l48.741,3.995    c3.241,0.264,5.781,3.021,5.781,6.273c0,2.401-1.272,3.932-2.029,4.631s-2.384,1.837-4.78,1.644L69.783,61.295z M69.783,127.372    c-3.243-0.267-5.783-3.023-5.783-6.276c0-2.401,1.272-3.932,2.029-4.629c0.757-0.699,2.385-1.84,4.78-1.645l48.741,3.995    c3.243,0.267,5.783,3.023,5.783,6.276c0,2.401-1.272,3.932-2.029,4.631s-2.389,1.841-4.78,1.645L69.783,127.372z M69.782,193.451    c-3.241-0.268-5.781-3.025-5.781-6.277c0-2.401,1.272-3.932,2.029-4.629c0.757-0.699,2.385-1.84,4.78-1.645l48.741,3.996    c3.243,0.265,5.781,3.023,5.781,6.275c0,2.401-1.272,3.932-2.029,4.631s-2.389,1.837-4.78,1.645L69.782,193.451z M69.782,259.524    c-3.241-0.265-5.781-3.021-5.781-6.275c0-2.401,1.272-3.932,2.029-4.631c0.757-0.699,2.385-1.84,4.78-1.645l48.741,3.995    c3.243,0.265,5.781,3.023,5.781,6.275c0,2.401-1.272,3.932-2.029,4.631s-2.389,1.839-4.78,1.645L69.782,259.524z M69.783,325.601    c-3.243-0.267-5.783-3.023-5.783-6.275c0-2.401,1.272-3.932,2.029-4.631c0.699-0.644,2.14-1.667,4.24-1.667    c0.176,0,0.356,0.007,0.541,0.023l48.741,3.995c3.243,0.265,5.781,3.023,5.781,6.275c0,2.401-1.272,3.932-2.029,4.631    s-2.384,1.839-4.78,1.644L69.783,325.601z M69.783,391.677c-3.243-0.265-5.783-3.021-5.783-6.275c0-2.401,1.272-3.932,2.029-4.631    c0.699-0.644,2.14-1.667,4.24-1.667c0.176,0,0.356,0.007,0.541,0.023l48.741,3.995c3.243,0.265,5.781,3.023,5.781,6.275    c0,2.401-1.272,3.932-2.029,4.631s-2.384,1.84-4.78,1.644L69.783,391.677z M69.782,457.753c-3.241-0.265-5.781-3.021-5.781-6.275    c0-2.401,1.272-3.932,2.029-4.629c0.757-0.699,2.385-1.839,4.78-1.645l48.741,3.995c3.243,0.265,5.781,3.023,5.781,6.275    c0,2.401-1.272,3.932-2.029,4.631c-0.757,0.699-2.389,1.84-4.78,1.645L69.782,457.753z M448.001,492H102.667v-11.483l14.223,1.165    c0.712,0.059,1.423,0.087,2.132,0.087c6.569,0,12.972-2.476,17.835-6.957c5.388-4.964,8.477-12.013,8.477-19.339    c0-13.587-10.607-25.099-24.147-26.208l-18.52-1.517V414.44l14.223,1.165c0.712,0.059,1.423,0.087,2.132,0.087    c6.569,0,12.972-2.476,17.833-6.956c5.388-4.964,8.477-12.013,8.477-19.339c0-13.587-10.607-25.099-24.147-26.208l-18.519-1.517    v-13.308l14.223,1.165c0.712,0.059,1.423,0.087,2.132,0.087c6.569,0,12.972-2.476,17.833-6.956    c5.388-4.964,8.477-12.013,8.477-19.339c0-13.587-10.607-25.099-24.147-26.208l-18.519-1.519v-13.308l14.223,1.165    c0.712,0.059,1.423,0.087,2.132,0.087c6.569,0,12.972-2.476,17.835-6.957c5.388-4.964,8.477-12.013,8.477-19.339    c0-13.587-10.607-25.099-24.147-26.208l-18.52-1.516v-13.308l14.223,1.165c0.712,0.059,1.423,0.087,2.132,0.087    c6.569,0,12.972-2.476,17.835-6.957c5.388-4.964,8.477-12.013,8.477-19.339c0-13.587-10.607-25.099-24.147-26.208l-18.52-1.516    v-13.309l14.223,1.165c0.712,0.059,1.423,0.087,2.132,0.087c6.569,0,12.972-2.476,17.835-6.957    c5.388-4.964,8.477-12.013,8.477-19.339c0-13.587-10.607-25.099-24.147-26.208l-18.52-1.516V84.057l14.223,1.165    c0.712,0.059,1.423,0.087,2.132,0.087c6.569,0,12.972-2.476,17.833-6.956c5.388-4.964,8.477-12.013,8.477-19.339    c0-13.587-10.607-25.099-24.147-26.208l-18.519-1.517V20h345.333V492z" fill="#FFFFFF"/>
	</g>
</g>
<g>
	<g>
		<path d="M373.334,180.667H214.667c-5.523,0-10,4.477-10,10c0,5.523,4.477,10,10,10h158.667c5.524,0,10-4.477,10-10    C383.334,185.144,378.858,180.667,373.334,180.667z" fill="#FFFFFF"/>
	</g>
</g>
<g>
	<g>
		<path d="M373.334,224.223H214.667c-5.523,0-10,4.477-10,10c0,5.523,4.477,10,10,10h158.667c5.524,0,10-4.477,10-10    C383.334,228.7,378.858,224.223,373.334,224.223z" fill="#FFFFFF"/>
	</g>
</g>
<g>
	<g>
		<path d="M373.334,267.777H214.667c-5.523,0-10,4.477-10,10c0,5.523,4.477,10,10,10h158.667c5.524,0,10-4.477,10-10    C383.334,272.255,378.858,267.777,373.334,267.777z" fill="#FFFFFF"/>
	</g>
</g>
<g>
	<g>
		<path d="M373.334,311.333H214.667c-5.523,0-10,4.477-10,10c0,5.523,4.477,10,10,10h158.667c5.524,0,10-4.477,10-10    C383.334,315.811,378.858,311.333,373.334,311.333z" fill="#FFFFFF"/>
	</g>
</g>
<g>
</g>
<g>
</g>
<g>
</g>
<g>
</g>
<g>
</g>
<g>
</g>
<g>
</g>
<g>
</g>
<g>
</g>
<g>
</g>
<g>
</g>
<g>
</g>
<g>
</g>
<g>
</g>
<g>
</g>
</svg>
